<svg xmlns="http://www.w3.org/2000/svg"><symbol id="books-map" viewBox="0 0 256 256"><path d="M3.89 89.46H40.1v13.21H3.89zm0 88.31H40.1v13.21H3.89zM76.3 79.62h36.21v8.55H76.3zm0 18.71h36.21v8.55H76.3zm63.24 75.48h5.78v36.21h-5.78zm-8.55 0h5.78v36.21h-5.78zm-113.36-9.44a2.52 2.52 0 0 1-2.52-2.53v-45.52a2.53 2.53 0 1 1 5.05 0v45.52a2.53 2.53 0 0 1-2.53 2.53zm8.72-4.88a2.52 2.52 0 0 1-2.53-2.49v-35.8a2.53 2.53 0 1 1 5.06 0V157a2.53 2.53 0 0 1-2.53 2.49zm206.9 42.64a1.21 1.21 0 0 1-1.21-1.21v-18a1.21 1.21 0 1 1 2.42 0v18a1.21 1.21 0 0 1-1.21 1.21zm-5.5-1.93a1.21 1.21 0 0 1-1.21-1.21v-14.15a1.21 1.21 0 0 1 2.42 0V199a1.21 1.21 0 0 1-1.21 1.2z"/><path d="M40.09 77.65H76.3v23.27H40.09zm170.62 74.03c-3.59 0-7.31-1.94-11.24-4-5-2.61-10.17-5.31-15.31-4.21-8.31 1.67-15-1.25-19.46-3.18a17.93 17.93 0 0 0-3.92-1.43c-2.08-.21-4.65.71-7.62 1.78-1.58.57-3.22 1.16-5 1.67a38.09 38.09 0 0 0-7.54 3.45 45 45 0 0 1-10.35 4.55 1.82 1.82 0 0 1-.9-3.53 43.11 43.11 0 0 0 9.52-4.21 39.8 39.8 0 0 1 8.29-3.76c1.65-.47 3.22-1 4.75-1.59 3.24-1.17 6.31-2.28 9.22-2a18.36 18.36 0 0 1 5 1.71c4.26 1.86 10.1 4.4 17.27 3 6.4-1.38 12.42 1.77 17.74 4.54 3.74 2 7.28 3.8 10.07 3.56 2.25-.2 3.49-2.19 5.33-5.41 2.28-4 5.11-9 12.12-8.53a1.82 1.82 0 0 1-.23 3.63c-4.74-.31-6.59 2.94-8.73 6.7-1.83 3.21-3.91 6.85-8.17 7.23a7.87 7.87 0 0 1-.84.03z"/><path d="M171 157.85h-.13a1.82 1.82 0 0 1-1.68-1.95 6.83 6.83 0 0 0-3.27-6h-.06c-1.68-1.09-5.16-2.34-8.53-3.55-5.83-2.09-9.18-3.36-10.26-5.12 0 0 0-.07-.05-.1a24.3 24.3 0 0 1-1.53-4.78c-.48-1.84-1.46-5.67-2.25-6.25a1.82 1.82 0 0 1 2.15-2.93c1.71 1.25 2.54 4.09 3.62 8.27a28.52 28.52 0 0 0 1.17 3.89c.81.88 5.36 2.51 8.38 3.59 3.71 1.34 7.21 2.59 9.25 3.91a10.49 10.49 0 0 1 5 9.33 1.82 1.82 0 0 1-1.81 1.69zm26.53-11.18a1.83 1.83 0 0 1-1.8-1.56 15 15 0 0 1 3.12-11.42 8.23 8.23 0 0 1 5.83-3.28h.83c4.42-.11 6.89-.66 7.35-1.63.21-.45-.06-1.57-1.47-3.38a1.82 1.82 0 0 1 2.87-2.23c2.18 2.8 2.82 5.21 1.89 7.17-1.65 3.48-7.43 3.63-10.54 3.71h-.77a4.78 4.78 0 0 0-3.18 2 11.41 11.41 0 0 0-2.33 8.57 1.82 1.82 0 0 1-1.53 2.07z"/><path d="M245.13 151.92l-23.53-31.35a3.62 3.62 0 0 0-3.75-1.34l-15.26 3.69-18.19-3.72h-1.46l-18.13 3.8-15.3-3.72a3.63 3.63 0 0 0-3.79 1.38l-23.19 31.78a3.63 3.63 0 0 0 2.44 5.73l27.77 3.8a3.73 3.73 0 0 0 .46 0h.45l30.16-4 30.2 3.72a3 3 0 0 0 .42 0 3.57 3.57 0 0 0 .47 0h.1l27.73-4a3.63 3.63 0 0 0 2.38-5.77zm-82.08-10l4.41-12.14 12.61-2.61v7l.09 16.92-21.48 2.91zm-12.9-15.1l9.8 2.38-1.33 3.65-7.8 21.46-18.82-2.55zm37.31 24.25l-.05-8-.08-15.9 12.67 2.62 2.65 7 6.35 16.96zm29.41 3l-6.15-16.33-3.23-8.55 9.74-2.36 18.42 24.54z"/><path d="M183.87 87.58a12.64 12.64 0 1 1 12.63-12.64 12.52 12.52 0 0 1-12.63 12.64zm0-40.42A27.7 27.7 0 0 0 156.08 75c0 15.41 27.79 53.05 27.79 53.05s27.79-37.64 27.79-53a27.7 27.7 0 0 0-27.79-27.89z"/><path d="M251.34 169.93H116.4V59.73a4.67 4.67 0 0 0-4.67-4.66H80.19v-8.31a4.67 4.67 0 0 0-4.67-4.67H40.87a4.67 4.67 0 0 0-4.66 4.67v19.77H4.66A4.66 4.66 0 0 0 0 71.19v138.05a4.67 4.67 0 0 0 4.66 4.67h34.66a4.9 4.9 0 0 0 .77-.07 5.14 5.14 0 0 0 .78.07h34.65a4.92 4.92 0 0 0 .78-.07 5 5 0 0 0 .78.07h34.65a4.92 4.92 0 0 0 .78-.07 4.92 4.92 0 0 0 .78.07h138.05a4.67 4.67 0 0 0 4.66-4.67v-34.65a4.66 4.66 0 0 0-4.66-4.66zM7.77 74.3h28.44v131.83H7.77zM44 71.19V49.87h28.42v156.26H44zm36.21-8.35h28.43v143.29H80.19zm168 143.29H116.4V177.7h131.83z"/></symbol><symbol id="calendar" viewBox="0 0 256 256"><path d="M221.09 23.27h-11.64V0h-23.27v23.27H69.82V0H46.55v23.27H34.91a23.35 23.35 0 0 0-23.27 23.28v186.18A23.34 23.34 0 0 0 34.91 256h186.18a23.34 23.34 0 0 0 23.27-23.27V46.55a23.35 23.35 0 0 0-23.27-23.28zm0 209.46H34.91V81.45h186.18z"/></symbol><symbol id="dnd-beyond" viewBox="0 0 256 256"><path d="M19.89 19.12h133.46s82.54 3.51 82.54 54.44c0 32.93-21.95 48.07-37.32 50.05 7.91 2.63 44.56 7.24 44.56 54 0 48.73-45.44 59.27-75.73 59.27H19.89l19.32-19.32v-75.95L12.87 107.8h25.9V40.2zm124.8 40.39h-42v48.29h46.71c10.42 0 21.73-8.44 21.73-18.86v-9c0-14.62-11.83-20.43-26.44-20.43zm33.69 116.33v-6.79c0-16-13-24.37-29-24.37h-46.73v52h54.86a20.87 20.87 0 0 0 20.87-20.84z"/></symbol><symbol id="cart" viewBox="0 0 256 256"><circle cx="70.94" cy="221.27" r="19.86"/><circle cx="214.72" cy="221.27" r="19.86"/><path d="M256 31H51.64L48 14.86H0v20.68h31.48l29 127.71a7.22 7.22 0 0 1-.87 5.35l-11.82 19.45a5.81 5.81 0 0 0 5 8.83h190.32v-20.67H79.2l2.45-4a7.26 7.26 0 0 0 .87-5.35l-1.89-8.32L256 136.86z"/></symbol><symbol id="down-indicator" viewBox="0 0 256 256"><path d="M0 81.23l27.15-27.15L128 154.93 228.85 54.08 256 81.23 141.19 196a18.63 18.63 0 0 1-26.32.84c-.29-.27-.56-.55-.83-.84z"/></symbol><symbol id="close" viewBox="0 0 256 256"><path d="M27.15 256L0 228.85 100.85 128 0 27.15 27.15 0 142 114.81a18.62 18.62 0 0 1 .84 26.32c-.27.29-.55.56-.84.83z"/><path d="M228.85 0L256 27.15 155.15 128 256 228.85 228.85 256 114 141.19a18.62 18.62 0 0 1-.84-26.32c.27-.29.55-.56.84-.83zM86 143L229.5-.5"/></symbol><symbol id="chest" viewBox="0 0 256 256"><defs><style>.cls-1{opacity:.95}</style></defs><g id="MRCS8E" class="cls-1"><path d="M212.61 57.78c-30.57 7.38-49.39 27.79-62.38 55.07L29.89 52.67a91.88 91.88 0 0 1 27.34-38.38C65 7.84 73.61 2.84 83.66.73a29.91 29.91 0 0 1 20.24 2.52Q157 29.94 210.2 56.47c.8.4 1.58.86 2.41 1.31zM16 112.28c2.61 1.28 4.76 2.32 6.9 3.39 11.67 5.83 23.32 11.72 35 17.48 1.81.89 2.67 1.83 2.52 3.94-.2 2.86 0 5.75 0 8.62a8.93 8.93 0 0 0 5.33 8.69c5.62 2.83 11.23 5.69 16.9 8.43 6.91 3.35 13.31-.67 13.46-8.38v-1.92c.86.33 1.53.53 2.16.85 11.92 5.94 23.83 11.92 35.77 17.83a3 3 0 0 1 2.07 3.11q-.09 39.9-.05 79.81c0 .53-.06 1.06-.12 1.87-1-.47-1.85-.81-2.66-1.22Q80.13 228.21 27 201.67c-7.41-3.69-11-9.46-11-17.74.08-22.8 0-45.61 0-68.41zm213.52 17.95v3c0 22.81-.06 45.61 0 68.42 0 8.29-3.53 14.09-11 17.77q-35.44 17.61-70.82 35.37c-.74.37-1.49.7-2.53 1.18-.07-.88-.18-1.56-.18-2.23q.12-39.36.23-78.71a3.71 3.71 0 0 1 2.34-3.84q39.74-19.9 79.39-39.94c.8-.33 1.56-.6 2.57-1.02z"/><path d="M212.75 128.3c-1.3.69-2.09 1.13-2.9 1.53q-33.4 16.71-66.79 33.45a4.74 4.74 0 0 1-4.85.08q-19.8-10.08-39.73-19.89c-1.7-.84-2.53-1.71-2.41-3.73.22-3.92-1.69-6.74-5.15-8.49-5.7-2.89-11.42-5.73-17.14-8.57a9.11 9.11 0 0 0-10.61 1.25 3 3 0 0 1-2.53.5c-12.94-6.38-25.84-12.87-38.75-19.34-.15-.07-.24-.26-.48-.53 3.75-1.89 7.46-3.77 11.18-5.63C43.52 93.47 54.47 88 65.37 82.51a4.22 4.22 0 0 1 4.35 0c26 13.08 52 26 77.9 39.17 5.26 2.67 10.83 2.18 16.29 2.66 15.78 1.36 31.59 2.4 47.39 3.57a12.46 12.46 0 0 1 1.45.39z"/><path d="M159.47 114.91a90.31 90.31 0 0 1 26.39-34.5c7.54-6.17 15.79-11.17 25.53-12.83a43.75 43.75 0 0 1 12.67-.29c8.6 1.1 14.23 7.52 15.52 16.49 1.32 9.18-.57 17.87-3.7 26.4-.86 2.34-2.14 4.54-2.85 6.92-.88 3-2.51 3.57-5.5 3.31-20.86-1.77-41.74-3.33-62.62-5-1.74-.1-3.47-.31-5.44-.5z"/></g></symbol><symbol id="facebook" viewBox="0 0 256 256"><path d="M166.51 41.6h28.81V0h-41.13c-41.44 0-53.3 33.32-53.3 54.23V93.3H60.68v47.13h40.21V256H148V140.43h39.24l6.11-47.13H148V59.8c0-12.19 9.73-18.05 18.51-18.2z"/></symbol><symbol id="email" viewBox="0 0 256 256"><path d="M128 170.02L0 84.7v121.16h256V84.7l-128 85.32z"/><path d="M256 50.14v18.69l-128 85.32L0 68.83V50.14h256z"/></symbol><symbol id="github" viewBox="0 0 256 256"><defs><style>.cls-1{fill-rule:evenodd}</style></defs><path d="M128 3.16a128 128 0 0 0-40.46 249.46c6.4 1.17 8.74-2.78 8.74-6.17 0-3-.11-11.09-.18-21.77-35.6 7.73-43.1-17.16-43.1-17.16-5.82-14.79-14.22-18.72-14.22-18.72-11.62-7.94.88-7.78.88-7.78 12.85.9 19.61 13.19 19.61 13.19 11.42 19.56 30 13.91 37.25 10.63 1.16-8.27 4.47-13.91 8.13-17.11-28.43-3.23-58.31-14.21-58.31-63.26a49.49 49.49 0 0 1 13.17-34.35c-1.32-3.24-5.71-16.25 1.25-33.87 0 0 10.75-3.44 35.2 13.12a121.28 121.28 0 0 1 64.09 0c24.44-16.56 35.17-13.12 35.17-13.12 7 17.62 2.59 30.63 1.27 33.87a49.43 49.43 0 0 1 13.16 34.35c0 49.17-29.93 60-58.44 63.16 4.59 4 8.69 11.77 8.69 23.71 0 17.11-.16 30.91-.16 35.11 0 3.42 2.3 7.4 8.8 6.15A128 128 0 0 0 128 3.16z" class="cls-1"/></symbol><symbol id="fax" viewBox="0 0 256 256"><path d="M224.77 205.77a18.3 18.3 0 1 1-18.3-18.3 18.31 18.31 0 0 1 18.3 18.3M256 234V87.75s0-18.3-18.3-18.3h-31.23v58.08c0 18.26-18.3 18.26-18.3 18.26H67.83c-18.3 0-18.3-18.26-18.3-18.26V69.45H18.3S0 69.45 0 87.75V234s0 18.3 18.3 18.3h219.4s18.3 0 18.3-18.3"/><path d="M189.07 107.52V22s0-18.3-18.3-18.3H85.21s-18.3 0-18.3 18.3v85.55s0 18.31 18.3 18.31h85.6s18.26 0 18.26-18.31"/></symbol><symbol id="google-drive" viewBox="0 0 256 256"><defs><style>.cls-1{opacity:.05}.cls-2{fill:#010101}</style></defs><path d="M256 163.17l-43.69 75.69H43.69l43.71-75.69H256z"/><path d="M128 92.82L43.69 238.86 0 163.17 84.31 17.14 128 92.82z"/><path d="M256 163.17h-87.39L84.31 17.14h87.39L256 163.17z"/><g class="cls-1"><path d="M128.11 163.17l-84.42 75.69 43.71-75.69h40.71zM128 92.82l-20.35 35.26L84.31 17.14 128 92.82zm128 70.35h-87.39l-20.35-35.25L256 163.17z" class="cls-2"/></g></symbol><symbol id="home" viewBox="0 0 256 256"><path d="M128 50.53l-90.95 80.84v117.89h60.63v-49.89a7.37 7.37 0 0 1 7.38-7.37h45.88a7.37 7.37 0 0 1 7.38 7.37v49.89H219V131.37zM70.74 40.42L37.05 70.74V23.58h33.69v16.84z"/><path d="M244.63 134.66L128 30.32 11.71 134.37 0 121.26 128 6.74l128 114.52-11.37 13.4z"/></symbol><symbol id="flickr" viewBox="0 0 256 256"><defs><style>.cls-1{fill-rule:evenodd}</style></defs><path d="M217.35 0H38.66A38.64 38.64 0 0 0 0 38.67v178.67A38.64 38.64 0 0 0 38.66 256h178.69A38.65 38.65 0 0 0 256 217.34V38.67A38.65 38.65 0 0 0 217.35 0zM114.61 124.26c0 24.28-18.11 44-40.46 44s-40.46-19.68-40.46-44 18.12-44 40.46-44 40.46 19.74 40.46 44zm103.49-.57c0 23.95-18.64 43.37-41.63 43.37s-41.63-19.42-41.63-43.37 18.64-43.38 41.63-43.38 41.63 19.42 41.63 43.38z" class="cls-1"/></symbol><symbol id="instgram" viewBox="0 0 256 256"><path d="M184.07 23.14a48.85 48.85 0 0 1 48.79 48.79v112.14a48.85 48.85 0 0 1-48.79 48.79H71.93a48.85 48.85 0 0 1-48.79-48.79V71.93a48.85 48.85 0 0 1 48.79-48.79h112.14m0-23.14H71.93A71.92 71.92 0 0 0 0 71.93v112.14A71.92 71.92 0 0 0 71.93 256h112.14A71.92 71.92 0 0 0 256 184.07V71.93A71.92 71.92 0 0 0 184.07 0z"/><path d="M128 85.89A42.11 42.11 0 1 1 85.89 128 42.16 42.16 0 0 1 128 85.89m0-23.14A65.25 65.25 0 1 0 193.25 128 65.25 65.25 0 0 0 128 62.75zm68.23 12.56c-8.47 0-15.91-7.71-15.6-16.11a15.69 15.69 0 0 1 15.94-15 15.42 15.42 0 0 1 15.18 15.66 15.71 15.71 0 0 1-15.52 15.45z"/></symbol><symbol id="left-indicator" viewBox="0 0 256 256"><path d="M174.77 0l27.15 27.15L101.07 128l100.85 100.85L174.77 256 60 141.19a18.63 18.63 0 0 1-.84-26.32c.27-.29.55-.56.84-.83z"/></symbol><symbol id="linkedin" viewBox="0 0 256 256"><path d="M4.69 85.26h53.25v170.5H4.69z"/><circle cx="31.32" cy="31.56" r="31.32"/><path d="M256 255.76h-53.25v-96.7s1.82-30.85-27.38-31.59-31 31.59-31 31.59v96.7H91.11V85.26h53.25v20.54S160.48 81 192.26 81c41.79 0 49 19.83 53.93 27s9.81 25.69 9.81 51.06z"/></symbol><symbol id="location" viewBox="0 0 256 256"><path d="M128 128a40 40 0 1 1 40-40 39.61 39.61 0 0 1-40 40zm0-128a87.75 87.75 0 0 0-88 88c0 48.8 88 168 88 168s88-119.2 88-168a87.75 87.75 0 0 0-88-88z"/></symbol><symbol id="menu-items" viewBox="0 0 256 256"><path d="M0 185.6h38.4V224H0zm57.6 0H256V224H57.6zM0 108.8h38.4v38.4H0zm57.6 0H256v38.4H57.6zM0 32h38.4v38.4H0zm57.6 0H256v38.4H57.6z"/></symbol><symbol id="messages-1" viewBox="0 0 256 256"><path d="M209.86 71.65h-95.71a3.88 3.88 0 0 1-2.86-1.26L96 53.7a3.86 3.86 0 0 0-2.87-1.26H20.29a3.89 3.89 0 0 0-3.89 3.88v143.36a3.89 3.89 0 0 0 3.89 3.88H21a3.89 3.89 0 0 1-3.81-4.56l9.6-55.22v-81h63.48l13.36 14.59A14.3 14.3 0 0 0 114.15 82h89.21v12.5h10.39v-19a3.89 3.89 0 0 0-3.89-3.85z"/><rect width="47.79" height="10.29" x="36.34" y="71.65" rx="5.14"/><path d="M228.09 94.5H38.63a3.88 3.88 0 0 0-3.83 3.22L17.19 199a3.89 3.89 0 0 0 3.81 4.56h1.33a3.88 3.88 0 0 1-3.55-5.45l15-34.19 10.26-59h176.32l-2.17 12.46h10.54l3.18-18.29a3.88 3.88 0 0 0-3.82-4.59z"/><path d="M235.75 127.74L207 193.18H32.32l28.77-65.44h174.66m10-10.39H56.85a3.88 3.88 0 0 0-3.56 2.33L18.8 198.11a3.88 3.88 0 0 0 3.56 5.45h188.85a3.89 3.89 0 0 0 3.56-2.32l34.49-78.44a3.89 3.89 0 0 0-3.55-5.45z"/></symbol><symbol id="menu" viewBox="0 0 256 256"><path d="M256 185.6V224H0v-38.4zm0-76.8v38.4H0v-38.4zm0-76.8v38.4H0V32z"/></symbol><symbol id="messages" viewBox="0 0 256 256"><path d="M171.51 39.85a57.17 57.17 0 1 1 0 114.34h-61.63l-3.81 5.09-23.49 31.39v-36.48h-12.7a57.17 57.17 0 1 1 0-114.34h101.63m0-12.71H69.88a69.88 69.88 0 0 0 0 139.76v62l46.36-62h55.27a69.88 69.88 0 0 0 0-139.76z"/><path d="M96 141.44a46.33 46.33 0 0 0 46.33 46.33h36.65l30.74 41.09v-41.09a46.33 46.33 0 0 0 0-92.66h-67.44A46.33 46.33 0 0 0 96 141.44z"/></symbol><symbol id="mobile" viewBox="0 0 256 256"><path d="M180.54 0H75.46A24.26 24.26 0 0 0 51.2 24.25v207.5A24.26 24.26 0 0 0 75.46 256h105.08a24.26 24.26 0 0 0 24.26-24.25V24.25A24.26 24.26 0 0 0 180.54 0M159 228.25H97v-16.18h62zm29.65-40.72H67.35V55.76h121.27z"/></symbol><symbol id="phone" viewBox="0 0 256 256"><path d="M228 195.82l-13.65 33.59a12.62 12.62 0 0 1-10.07 8.1 15.37 15.37 0 0 1-4.12.12c-46.76-6.39-89.63-28.63-120.9-62.69C45.5 138.1 27.43 90.77 27 38.11a13.25 13.25 0 0 1 11-13.23l37.91-6.39a12.86 12.86 0 0 1 14.76 8.92l13.36 37.77a14.09 14.09 0 0 1-3.03 13.9l-.33.36-20.16 17.29a9.47 9.47 0 0 0-2.87 11.37c12.45 29.81 39.82 56 61.32 70.7a10.72 10.72 0 0 0 7.69 1.56 11.6 11.6 0 0 0 5.26-2.38L169 161.74a12.59 12.59 0 0 1 7-3.72 12.46 12.46 0 0 1 8.89 1.8l36.35 19.35a11.51 11.51 0 0 1 6.38 5.79 13.12 13.12 0 0 1 .38 10.86z"/></symbol><symbol id="phone-tf" viewBox="0 0 256 256"><path d="M228 195.82l-13.65 33.59a12.62 12.62 0 0 1-10.07 8.1 15.37 15.37 0 0 1-4.12.12c-46.76-6.39-89.63-28.63-120.9-62.69C45.5 138.1 27.43 90.77 27 38.11a13.25 13.25 0 0 1 11-13.23l37.91-6.39a12.86 12.86 0 0 1 14.76 8.92l13.36 37.77a14.09 14.09 0 0 1-3.03 13.9l-.33.36-20.16 17.29a9.47 9.47 0 0 0-2.87 11.37c12.45 29.81 39.82 56 61.32 70.7a10.72 10.72 0 0 0 7.69 1.56 11.6 11.6 0 0 0 5.26-2.38L169 161.74a12.59 12.59 0 0 1 7-3.72 12.46 12.46 0 0 1 8.89 1.8l36.35 19.35a11.51 11.51 0 0 1 6.38 5.79 13.12 13.12 0 0 1 .38 10.86z"/><path d="M141.74 84.6h-19.5V73.11h53.11V84.6h-19.5v49.45h-14.11zm55.31-.17v16.11h28.21v11.32h-28.21v22.19H183V73.11h46v11.32z"/></symbol><symbol id="search" viewBox="0 0 256 256"><path d="M227.87 200.72l-56.35-56.35a77 77 0 1 0-27.15 27.15l56.35 56.35zm-150-68.22a38.64 38.64 0 1 1 54.65 0 38.65 38.65 0 0 1-54.67 0z"/></symbol><symbol id="settings" viewBox="0 0 256 256"><path d="M256 142.05V114l-36.06-12.31a95.06 95.06 0 0 0-8.29-20l16.8-34.21-19.88-19.93-34.21 16.8a95.06 95.06 0 0 0-20-8.29L142.05 0H114l-12.36 36.06a95.06 95.06 0 0 0-20 8.29l-34.21-16.8-19.88 19.88 16.8 34.21a95.06 95.06 0 0 0-8.29 20L0 114v28.1l36.06 12.31a95.06 95.06 0 0 0 8.29 20l-16.8 34.21 19.88 19.88 34.21-16.8a95.06 95.06 0 0 0 20 8.29L114 256h28.1l12.31-36.06a95.06 95.06 0 0 0 20-8.29l34.21 16.8 19.88-19.88-16.8-34.21a95.06 95.06 0 0 0 8.29-20zm-128 27.11A41.16 41.16 0 1 1 169.16 128 41.16 41.16 0 0 1 128 169.16z"/></symbol><symbol id="plus" viewBox="0 0 256 256"><path d="M108.8 0h38.4v256h-38.4z"/><path d="M256 108.8v38.4H0v-38.4z"/></symbol><symbol id="right-indicator" viewBox="0 0 256 256"><path d="M81.23 256l-27.15-27.15L154.93 128 54.08 27.15 81.23 0 196 114.81a18.63 18.63 0 0 1 .84 26.32c-.27.29-.55.56-.84.83z"/></symbol><symbol id="share" viewBox="0 0 256 256"><path d="M49.94 166.07a37.82 37.82 0 0 0 28.69-13.16l91.17 52.64a38 38 0 1 0 7.1-12.3l-91.17-52.63a37.44 37.44 0 0 0 0-24.94L176.9 63a38.17 38.17 0 1 0-7.09-12.3l-91.18 52.69A37.91 37.91 0 1 0 50 166.07z"/></symbol><symbol id="snapchat" viewBox="0 0 256 256"><path d="M56.93 83.44h.55c.37 6.58.68 13.17 1.16 19.75.15 2-.67 3.09-2.51 2.8-3.92-.61-8-1.1-11.64-2.45a14.91 14.91 0 0 0-13.21.94c-7 4-7.74 11.54-1.32 16.38 3.22 2.43 7.11 4 10.83 5.7 3.47 1.57 7.24 2.51 10.66 4.18 5.52 2.69 6.93 6.5 4.31 12a99.51 99.51 0 0 1-7.74 14C37.52 172.1 24 183.11 5.24 186.76c-4.92 1-6.65 5.54-4 10a16 16 0 0 0 9.36 6.74c7.11 2.17 14.33 4 21.57 5.7 1.8.43 2.6 1.12 3 2.83.59 2.8 1.3 5.58 2.06 8.34 1.22 4.36 3.47 6 8 5.64 3-.26 6-1 9-1.46 12.39-2.11 24-.69 34.21 7.39 2.84 2.25 5.88 4.27 8.93 6.24 18.48 11.92 37.54 13 57 2.55a108.64 108.64 0 0 0 13.82-9.23c9.1-6.9 19.33-8.77 30.37-7.43 3.88.47 7.72 1.3 11.61 1.74 4.9.56 7.33-1.16 8.64-5.91.71-2.57 1.36-5.17 1.88-7.79.38-1.86 1.35-2.49 3.22-2.94 7.59-1.85 15.24-3.63 22.59-6.22a19.21 19.21 0 0 0 8.13-6.4c3.07-4 .82-8.59-4.1-9.76a74.69 74.69 0 0 1-9.38-2.58c-19.6-7.43-32.17-22-40.83-40.5-3-6.38-1.53-10.28 4.89-13.25 3.28-1.51 6.81-2.49 10.21-3.74 4.51-1.67 8.93-3.52 12.17-7.27 3.93-4.57 3.39-10.21-1.47-13.76s-9.87-4.54-15.65-2.11a47.45 47.45 0 0 1-10.47 2.58c-2.13.37-3.05-.7-2.91-3.24.6-10.58 1.21-21.19 1.23-31.78.06-22.67-9.91-40.46-28.73-52.45C143.84 2.29 116.64 2.21 90 16.17a58.19 58.19 0 0 0-31 41.61c-1.69 8.36-1.46 17.1-2.07 25.66z"/></symbol><symbol id="vimeo" viewBox="0 0 256 256"><path d="M255.88 68.4q-1.71 37.44-52.21 102.54-52.21 68-88.35 68-22.36 0-37.86-41.4L56.8 121.61q-11.49-41.39-24.66-41.4-2.88 0-20.09 12.08L0 76.74q18.95-16.68 37.36-33.38 25.28-21.88 37.93-23 29.89-2.87 36.79 40.94 7.45 47.28 10.35 58.79 8.61 39.21 19 39.2 8 0 24.13-25.44t17.24-38.73q2.29-22-17.24-22a47.88 47.88 0 0 0-18.94 4.2q18.87-61.93 72.1-60.2 39.42 1.16 37.16 51.28z"/></symbol><symbol id="twitter" viewBox="0 0 256 256"><path d="M128 79.62c-7.27-58.28 63.9-80.11 91.77-36.72 19.47-10.28 23.78-13.07 27.7-14.62-5 19.7-18.25 31.07-22.76 33.44L256 51.61C245.56 74 230.53 79.83 230.53 79.83 236.31 176.1 138 284.7 0 212.43c48.23 3.07 74.39-20.66 74.39-20.66-28.56.78-49.94-25.84-49.18-35.31 14.43 4.38 33.3 6.28 41.53.7-48.65-16-58.28-46.08-58.95-59.65 7.07 2.84 14.92 6.25 24.07 7.57C-2.81 82.24 6.56 48.87 15.58 37 50.72 82.62 128 79.62 128 79.62z"/></symbol><symbol id="up-indicator" viewBox="0 0 256 256"><path d="M256 174.77l-27.15 27.15L128 101.07 27.15 201.92 0 174.77 114.81 60a18.63 18.63 0 0 1 26.32-.84c.29.27.56.55.83.84z"/></symbol><symbol id="youtube" viewBox="0 0 256 256"><path d="M211.52 217.06h-167A44.48 44.48 0 0 1 0 172.58V83.42a44.48 44.48 0 0 1 44.48-44.48h167A44.48 44.48 0 0 1 256 83.42v89.16a44.48 44.48 0 0 1-44.48 44.48zm-41.85-91.56l-68-36.09v72.19z"/></symbol><symbol id="website" viewBox="0 0 256 256"><path d="M128 0a128 128 0 1 0 128 128A128.14 128.14 0 0 0 128 0zM17.13 136.39h44a232.55 232.55 0 0 0 4.52 39.2H27.5a110.16 110.16 0 0 1-10.37-39.2zm119.26-56h37.74a215.52 215.52 0 0 1 4.8 39.2h-42.54zm0-16V18.07c12.83 5.12 25.27 21.62 33.38 46.33zm-16.78-46.32V64.4H86.23c8.11-24.71 20.55-41.21 33.38-46.33zm0 62.34v39.2H77.07a215.52 215.52 0 0 1 4.8-39.2zm-58.48 39.2h-44a110.16 110.16 0 0 1 10.37-39.2h38.15a232.55 232.55 0 0 0-4.52 39.2zm15.94 16.78h42.54v39.2H81.87a215.63 215.63 0 0 1-4.8-39.2zm42.54 55.21v46.33c-12.83-5.12-25.27-21.62-33.38-46.33zm16.78 46.33V191.6h33.38c-8.11 24.71-20.55 41.21-33.38 46.33zm0-62.34v-39.2h42.54a215.63 215.63 0 0 1-4.8 39.2zm58.48-39.2h44a110.16 110.16 0 0 1-10.37 39.2h-38.15a232.55 232.55 0 0 0 4.52-39.2zm0-16.78a232.55 232.55 0 0 0-4.52-39.2h38.15a110.16 110.16 0 0 1 10.37 39.2zm24.29-55.21h-32.8c-4.76-16.06-11.3-29.84-19.14-40.46a111.81 111.81 0 0 1 51.94 40.46zM88.78 23.94C80.94 34.56 74.4 48.34 69.64 64.4h-32.8a111.81 111.81 0 0 1 51.94-40.46zM36.84 191.6h32.8c4.76 16.06 11.3 29.84 19.14 40.46a111.81 111.81 0 0 1-51.94-40.46zm130.38 40.46c7.84-10.62 14.38-24.4 19.14-40.46h32.8a111.81 111.81 0 0 1-51.94 40.46z"/></symbol></svg>